<svg width="37" height="37" viewBox="0 0 37 37" fill="none" xmlns="http://www.w3.org/2000/svg">
<g id="file-star-four-points">
<path id="Vector" d="M6.5 6.03223C6.5 4.36723 7.835 3.03223 9.5 3.03223H21.5L30.5 12.0322V30.0322C30.5 30.8272 30.185 31.5922 29.615 32.1472C29.06 32.7172 28.295 33.0322 27.5 33.0322H9.5C8.705 33.0322 7.94 32.7172 7.385 32.1472C6.815 31.5922 6.5 30.8272 6.5 30.0322V6.03223ZM20 5.28223V13.5322H28.25L20 5.28223ZM18.5 16.5322L16.61 20.6572L12.5 22.5322L16.61 24.4222L18.5 28.5322L20.375 24.4222L24.5 22.5322L20.375 20.6572L18.5 16.5322Z" fill="#2D31D9"/>
</g>
</svg>
