<svg width="24" height="25" viewBox="0 0 24 25" fill="none" xmlns="http://www.w3.org/2000/svg">
<g id="calendar-clock">
<path id="Vector" d="M15 13.0322H16.5V15.8522L18.94 17.2622L18.19 18.5622L15 16.7222V13.0322ZM19 8.03223H5V19.0322H9.67C9.24 18.1222 9 17.1022 9 16.0322C9 14.1757 9.7375 12.3952 11.0503 11.0825C12.363 9.76972 14.1435 9.03223 16 9.03223C17.07 9.03223 18.09 9.27223 19 9.70223V8.03223ZM5 21.0322C3.89 21.0322 3 20.1322 3 19.0322V5.03223C3 3.92223 3.89 3.03223 5 3.03223H6V1.03223H8V3.03223H16V1.03223H18V3.03223H19C19.5304 3.03223 20.0391 3.24294 20.4142 3.61801C20.7893 3.99309 21 4.50179 21 5.03223V11.1322C22.24 12.3922 23 14.1222 23 16.0322C23 17.8887 22.2625 19.6692 20.9497 20.982C19.637 22.2947 17.8565 23.0322 16 23.0322C14.09 23.0322 12.36 22.2722 11.1 21.0322H5ZM16 11.1822C14.7137 11.1822 13.4801 11.6932 12.5705 12.6028C11.661 13.5123 11.15 14.7459 11.15 16.0322C11.15 18.7122 13.32 20.8822 16 20.8822C16.6369 20.8822 17.2676 20.7568 17.856 20.513C18.4444 20.2693 18.9791 19.9121 19.4295 19.4617C19.8798 19.0113 20.2371 18.4767 20.4808 17.8882C20.7246 17.2998 20.85 16.6691 20.85 16.0322C20.85 13.3522 18.68 11.1822 16 11.1822Z" fill="#2D31D9"/>
</g>
</svg>
