<svg width="24" height="25" viewBox="0 0 24 25" fill="none" xmlns="http://www.w3.org/2000/svg">
<g id="car-emergency" clip-path="url(#clip0_61_1169)">
<path id="Vector" d="M11 0.0322266V3.03223H13V0.0322266H11ZM7.88 1.49223L6.46 2.90223L8.59 5.03223L10 3.61223L7.88 1.49223ZM16.12 1.49223L14 3.61223L15.41 5.03223L17.54 2.91223L16.12 1.49223ZM12 5.03223C11.4696 5.03223 10.9609 5.24294 10.5858 5.61801C10.2107 5.99309 10 6.50179 10 7.03223V8.03223H6.5C5.84 8.03223 5.28 8.45223 5.08 9.03223L3 15.0322V23.0322C3 23.2974 3.10536 23.5518 3.29289 23.7393C3.48043 23.9269 3.73478 24.0322 4 24.0322H5C5.26522 24.0322 5.51957 23.9269 5.70711 23.7393C5.89464 23.5518 6 23.2974 6 23.0322V22.0322H18V23.0322C18 23.2974 18.1054 23.5518 18.2929 23.7393C18.4804 23.9269 18.7348 24.0322 19 24.0322H20C20.2652 24.0322 20.5196 23.9269 20.7071 23.7393C20.8946 23.5518 21 23.2974 21 23.0322V15.0322L18.92 9.03223C18.72 8.45223 18.16 8.03223 17.5 8.03223H14V7.03223C14 6.50179 13.7893 5.99309 13.4142 5.61801C13.0391 5.24294 12.5304 5.03223 12 5.03223ZM6.5 9.53223H17.5L19 14.0322H5L6.5 9.53223ZM6.5 16.0322C6.89782 16.0322 7.27936 16.1903 7.56066 16.4716C7.84196 16.7529 8 17.1344 8 17.5322C8 17.9301 7.84196 18.3116 7.56066 18.5929C7.27936 18.8742 6.89782 19.0322 6.5 19.0322C6.10218 19.0322 5.72064 18.8742 5.43934 18.5929C5.15804 18.3116 5 17.9301 5 17.5322C5 17.1344 5.15804 16.7529 5.43934 16.4716C5.72064 16.1903 6.10218 16.0322 6.5 16.0322ZM17.5 16.0322C17.8978 16.0322 18.2794 16.1903 18.5607 16.4716C18.842 16.7529 19 17.1344 19 17.5322C19 17.9301 18.842 18.3116 18.5607 18.5929C18.2794 18.8742 17.8978 19.0322 17.5 19.0322C17.1022 19.0322 16.7206 18.8742 16.4393 18.5929C16.158 18.3116 16 17.9301 16 17.5322C16 17.1344 16.158 16.7529 16.4393 16.4716C16.7206 16.1903 17.1022 16.0322 17.5 16.0322Z" fill="#2D31D9"/>
</g>
<defs>
<clipPath id="clip0_61_1169">
<rect width="24" height="24" fill="white" transform="translate(0 0.0322266)"/>
</clipPath>
</defs>
</svg>
