<svg width="24" height="25" viewBox="0 0 24 25" fill="none" xmlns="http://www.w3.org/2000/svg">
<g id="list-box-outline">
<path id="Vector" d="M11 15.0322H17V17.0322H11V15.0322ZM9 7.03223H7V9.03223H9V7.03223ZM11 13.0322H17V11.0322H11V13.0322ZM11 9.03223H17V7.03223H11V9.03223ZM9 11.0322H7V13.0322H9V11.0322ZM21 5.03223V19.0322C21 20.1322 20.1 21.0322 19 21.0322H5C3.9 21.0322 3 20.1322 3 19.0322V5.03223C3 3.93223 3.9 3.03223 5 3.03223H19C20.1 3.03223 21 3.93223 21 5.03223ZM19 5.03223H5V19.0322H19V5.03223ZM9 15.0322H7V17.0322H9V15.0322Z" fill="#85311B"/>
</g>
</svg>
