<svg width="24" height="25" viewBox="0 0 24 25" fill="none" xmlns="http://www.w3.org/2000/svg">
<g id="lifebuoy">
<path id="Vector" d="M19.79 15.4422C20.74 13.2722 20.74 10.7822 19.79 8.62223L17.05 9.86223C17.65 11.2422 17.65 12.8122 17.06 14.2022L19.79 15.4422ZM15.42 4.24223C13.25 3.29223 10.76 3.29223 8.59 4.24223L9.83 6.97223C11.22 6.38223 12.79 6.38223 14.18 6.98223L15.42 4.24223ZM4.21 8.61223C3.26 10.7922 3.26 13.2722 4.21 15.4522L6.95 14.2022C6.35 12.8222 6.35 11.2422 6.95 9.85223L4.21 8.61223ZM8.59 19.8222C10.76 20.7722 13.25 20.7722 15.42 19.8122L14.18 17.0822C12.8 17.6822 11.22 17.6822 9.84 17.0922L8.59 19.8222ZM12 2.03223C13.3132 2.03223 14.6136 2.29088 15.8268 2.79343C17.0401 3.29598 18.1425 4.03257 19.0711 4.96116C19.9997 5.88974 20.7362 6.99214 21.2388 8.20539C21.7413 9.41865 22 10.719 22 12.0322C22 14.6844 20.9464 17.2279 19.0711 19.1033C17.1957 20.9787 14.6522 22.0322 12 22.0322C10.6868 22.0322 9.38642 21.7736 8.17317 21.271C6.95991 20.7685 5.85752 20.0319 4.92893 19.1033C3.05357 17.2279 2 14.6844 2 12.0322C2 9.38006 3.05357 6.83652 4.92893 4.96116C6.8043 3.08579 9.34784 2.03223 12 2.03223ZM12 8.03223C10.9391 8.03223 9.92172 8.45365 9.17157 9.2038C8.42143 9.95394 8 10.9714 8 12.0322C8 13.0931 8.42143 14.1105 9.17157 14.8607C9.92172 15.6108 10.9391 16.0322 12 16.0322C13.0609 16.0322 14.0783 15.6108 14.8284 14.8607C15.5786 14.1105 16 13.0931 16 12.0322C16 10.9714 15.5786 9.95394 14.8284 9.2038C14.0783 8.45365 13.0609 8.03223 12 8.03223Z" fill="#2D31D9"/>
</g>
</svg>
