<svg width="39" height="37" viewBox="0 0 39 37" fill="none" xmlns="http://www.w3.org/2000/svg">
<g id="Logo sided">
<path id="Vector" d="M1.47699 0.501256C3.87846 0.498502 6.27993 0.501255 8.68141 0.500468C8.68259 1.30338 8.68377 2.1065 8.68141 2.90961C7.08324 2.90863 5.4839 2.90863 3.88495 2.90961C3.88495 4.50797 3.88495 6.10653 3.88495 7.70607C3.08204 7.70607 2.27991 7.70607 1.47699 7.70607C1.47699 5.30459 1.47699 2.90292 1.47699 0.501256Z" fill="url(#paint0_linear_75_49)"/>
<path id="Vector_2" d="M30.1939 0.577148C32.5954 0.577148 34.9969 0.577148 37.3995 0.577148C37.3995 2.96623 37.3995 5.35511 37.3995 7.74419C36.5962 7.74419 35.7933 7.74518 34.9912 7.74419C34.9912 6.15744 34.9912 4.57128 34.99 2.98531C33.3918 2.98531 31.7921 2.9861 30.1939 2.98531C30.1939 2.1822 30.1928 1.37928 30.1939 0.577148Z" fill="url(#paint1_linear_75_49)"/>
<path id="Vector_3" d="M6.27463 5.29884C8.6765 5.29609 20.6719 5.29884 23.0737 5.29688C23.0769 6.09999 23.0737 6.9033 23.0745 7.70622C22.2747 7.70818 21.4756 7.70228 20.6754 7.70917C20.677 8.50461 20.6754 9.29985 20.677 10.0953C21.4764 10.0953 22.2747 10.0953 23.0739 10.0953C23.0759 10.8945 23.0739 11.6937 23.0747 12.494C23.8711 12.494 24.668 12.494 25.4638 12.494C25.4638 10.0953 25.4638 7.69776 25.4638 5.29884C27.8653 5.29609 30.2667 5.29884 32.6682 5.29786C32.6706 7.69953 32.6694 10.101 32.6694 12.5035C30.2711 12.5044 27.8721 12.5025 25.4734 12.5044C25.4734 13.3036 25.4734 14.1028 25.4734 14.902C24.6705 14.902 23.8684 14.9032 23.0651 14.902C23.0643 14.102 23.0651 13.3026 23.0651 12.5035C22.2653 12.5025 21.4661 12.5044 20.6667 12.5025C20.6667 11.7033 20.6667 10.9039 20.6667 10.1047C19.8674 10.1047 19.067 10.1057 18.268 10.1038C18.268 9.30438 18.268 8.50539 18.268 7.707C17.4679 7.70503 7.07441 7.70798 6.27483 7.70503C6.27464 6.9031 6.27385 6.10097 6.27463 5.29884ZM27.8722 7.707C27.8722 8.50244 27.8722 9.29887 27.8729 10.0951C28.6686 10.0951 29.465 10.0951 30.2614 10.0951C30.2614 9.29887 30.2602 8.50244 30.2614 7.707C29.4648 7.70621 28.6684 7.70621 27.8722 7.707Z" fill="url(#paint2_linear_75_49)"/>
<path id="Vector_4" d="M9.90961 12.4945C12.6988 12.4916 15.4877 12.4945 18.2738 12.4935C18.2798 13.2955 18.2761 14.0986 18.2761 14.9017C15.4877 14.9017 12.7013 14.9017 9.91256 14.9017C9.90961 14.0988 9.91649 13.2964 9.90961 12.4945Z" fill="url(#paint3_linear_75_49)"/>
<path id="Vector_5" d="M6.27466 8.64686C9.08605 8.64391 11.897 8.64686 14.7053 8.64587C14.7114 9.44781 14.7073 10.2509 14.7073 11.0542C11.897 11.0542 9.0888 11.0542 6.27781 11.0542C6.27466 10.2511 6.28154 9.44899 6.27466 8.64686Z" fill="url(#paint4_linear_75_49)"/>
<g id="Group">
<path id="Vector_6" d="M25.4638 24.4971C27.8653 24.4971 30.2679 24.4959 32.6694 24.4971C32.6694 26.8994 32.6706 29.3008 32.6682 31.7027C30.2668 31.7011 27.8653 31.7035 25.4638 31.7011C25.4638 29.3001 25.4638 26.8986 25.4638 24.4971ZM27.8729 26.9051C27.8722 27.7015 27.8722 28.4979 27.8722 29.2936C28.6686 29.2951 29.4638 29.2936 30.2603 29.2943C30.2626 28.4979 30.2603 27.7015 30.2614 26.9062C29.4648 26.9041 28.6684 26.9051 27.8729 26.9051Z" fill="url(#paint5_linear_75_49)"/>
</g>
<path id="Vector_7" d="M1.47697 29.294C2.27989 29.2933 3.08202 29.2933 3.88494 29.294C3.88494 30.8926 3.88494 32.4908 3.88494 34.0905C5.48467 34.0925 7.08323 34.0905 8.68257 34.0917C8.68257 34.8946 8.68375 35.6963 8.68139 36.4996C6.27992 36.4985 3.87844 36.5016 1.47697 36.4985C1.47776 34.097 1.47619 31.6955 1.47697 29.294Z" fill="url(#paint6_linear_75_49)"/>
<path id="Vector_8" d="M34.9912 29.294C35.7933 29.2933 36.5962 29.2933 37.3995 29.294C37.3995 31.6705 37.3995 34.0462 37.3995 36.4227C35.0105 36.4227 32.6212 36.4227 30.2321 36.4227C30.2313 35.6194 30.2313 34.8165 30.2321 34.0144C31.8183 34.0136 33.4042 34.0144 34.99 34.0144C34.9912 32.4412 34.99 30.8672 34.9912 29.294Z" fill="url(#paint7_linear_75_49)"/>
<path id="Vector_9" fill-rule="evenodd" clip-rule="evenodd" d="M20.2559 25.7994C19.8161 23.5854 17.8729 21.8326 15.6262 21.6448C14.1394 21.5203 12.8249 21.9434 11.6899 22.9156C10.315 24.0938 9.43872 26.2638 10.1793 28.2817C10.5485 29.2874 11.0188 30.2414 11.5477 31.1692C12.3937 32.6515 13.3445 34.0662 14.3483 35.4454C14.6006 35.7916 14.8597 36.1329 15.1231 36.4873C15.1496 36.4576 15.1626 36.444 15.1742 36.4295C16.5237 34.6592 17.782 32.8282 18.8707 30.8844C19.3322 30.06 19.7439 29.2131 20.0633 28.3211C20.3587 27.4951 20.4268 26.6603 20.2559 25.7994ZM15.1288 30.3077C13.3197 30.3077 11.853 28.8409 11.853 27.0317C11.853 25.2225 13.3197 23.7557 15.1288 23.7557C16.9382 23.7557 18.405 25.2225 18.405 27.0317C18.405 28.8409 16.9382 30.3077 15.1288 30.3077Z" fill="url(#paint8_linear_75_49)"/>
<path id="Vector_10" d="M2.73605 21.352C4.24713 21.352 5.47211 20.127 5.47211 18.6159C5.47211 17.1049 4.24713 15.8799 2.73605 15.8799C1.22497 15.8799 0 17.1049 0 18.6159C0 20.127 1.22497 21.352 2.73605 21.352Z" fill="#58595B"/>
<path id="Vector_11" d="M36.0699 21.352C37.5809 21.352 38.8059 20.127 38.8059 18.6159C38.8059 17.1049 37.5809 15.8799 36.0699 15.8799C34.5588 15.8799 33.3338 17.1049 33.3338 18.6159C33.3338 20.127 34.5588 21.352 36.0699 21.352Z" fill="#58595B"/>
<path id="Vector_12" d="M32.7663 18.6162C32.7663 18.9978 32.8312 19.3658 32.9534 19.7079H5.85229C5.97444 19.3658 6.03935 18.998 6.03935 18.6162C6.03935 18.1481 5.941 17.7035 5.76575 17.3003H33.0397C32.8647 17.7035 32.7663 18.1481 32.7663 18.6162Z" fill="#58595B"/>
</g>
<defs>
<linearGradient id="paint0_linear_75_49" x1="38.0467" y1="37.0708" x2="2.39116" y2="1.4152" gradientUnits="userSpaceOnUse">
<stop stop-color="#2D31D9"/>
<stop offset="1" stop-color="#3A3EEC"/>
</linearGradient>
<linearGradient id="paint1_linear_75_49" x1="53.5692" y1="21.554" x2="17.9104" y2="-14.1049" gradientUnits="userSpaceOnUse">
<stop stop-color="#2D31D9"/>
<stop offset="1" stop-color="#3A3EEC"/>
</linearGradient>
<linearGradient id="paint2_linear_75_49" x1="44.0462" y1="31.0761" x2="8.38842" y2="-4.58168" gradientUnits="userSpaceOnUse">
<stop stop-color="#2D31D9"/>
<stop offset="1" stop-color="#3A3EEC"/>
</linearGradient>
<linearGradient id="paint3_linear_75_49" x1="37.759" y1="37.3634" x2="2.10114" y2="1.70554" gradientUnits="userSpaceOnUse">
<stop stop-color="#2D31D9"/>
<stop offset="1" stop-color="#3A3EEC"/>
</linearGradient>
<linearGradient id="paint4_linear_75_49" x1="37.8814" y1="37.24" x2="2.22395" y2="1.58256" gradientUnits="userSpaceOnUse">
<stop stop-color="#2D31D9"/>
<stop offset="1" stop-color="#3A3EEC"/>
</linearGradient>
<linearGradient id="paint5_linear_75_49" x1="38.0448" y1="37.0775" x2="2.38761" y2="1.42029" gradientUnits="userSpaceOnUse">
<stop stop-color="#2D31D9"/>
<stop offset="1" stop-color="#3A3EEC"/>
</linearGradient>
<linearGradient id="paint6_linear_75_49" x1="22.4529" y1="52.6683" x2="-13.2043" y2="17.0111" gradientUnits="userSpaceOnUse">
<stop stop-color="#2D31D9"/>
<stop offset="1" stop-color="#3A3EEC"/>
</linearGradient>
<linearGradient id="paint7_linear_75_49" x1="38.0402" y1="37.0826" x2="2.38062" y2="1.423" gradientUnits="userSpaceOnUse">
<stop stop-color="#2D31D9"/>
<stop offset="1" stop-color="#3A3EEC"/>
</linearGradient>
<linearGradient id="paint8_linear_75_49" x1="9.90949" y1="29.0553" x2="20.3481" y2="29.0553" gradientUnits="userSpaceOnUse">
<stop stop-color="#2D31D9"/>
<stop offset="1" stop-color="#3A3EEC"/>
</linearGradient>
</defs>
</svg>
