<svg width="24" height="25" viewBox="0 0 24 25" fill="none" xmlns="http://www.w3.org/2000/svg">
<g id="magnify">
<path id="Vector" d="M9.5 3.01611C11.2239 3.01611 12.8772 3.70093 14.0962 4.91992C15.3152 6.13891 16 7.79221 16 9.51611C16 11.1261 15.41 12.6061 14.44 13.7461L14.71 14.0161H15.5L20.5 19.0161L19 20.5161L14 15.5161V14.7261L13.73 14.4561C12.59 15.4261 11.11 16.0161 9.5 16.0161C7.77609 16.0161 6.12279 15.3313 4.90381 14.1123C3.68482 12.8933 3 11.24 3 9.51611C3 7.79221 3.68482 6.13891 4.90381 4.91992C6.12279 3.70093 7.77609 3.01611 9.5 3.01611ZM9.5 5.01611C7 5.01611 5 7.01611 5 9.51611C5 12.0161 7 14.0161 9.5 14.0161C12 14.0161 14 12.0161 14 9.51611C14 7.01611 12 5.01611 9.5 5.01611Z" fill="#2D31D9"/>
</g>
</svg>
