<svg width="24" height="25" viewBox="0 0 24 25" fill="none" xmlns="http://www.w3.org/2000/svg">
<g id="account-box-multiple">
<path id="Vector" d="M4 6.03223H2V20.0322C2 20.5627 2.21071 21.0714 2.58579 21.4464C2.96086 21.8215 3.46957 22.0322 4 22.0322H18V20.0322H4V6.03223ZM20 2.03223C20.5304 2.03223 21.0391 2.24294 21.4142 2.61801C21.7893 2.99309 22 3.50179 22 4.03223V16.0322C22 16.5627 21.7893 17.0714 21.4142 17.4464C21.0391 17.8215 20.5304 18.0322 20 18.0322H8C7.46957 18.0322 6.96086 17.8215 6.58579 17.4464C6.21071 17.0714 6 16.5627 6 16.0322V4.03223C6 3.50179 6.21071 2.99309 6.58579 2.61801C6.96086 2.24294 7.46957 2.03223 8 2.03223H20ZM17 7.03223C17 6.23658 16.6839 5.47352 16.1213 4.91091C15.5587 4.3483 14.7956 4.03223 14 4.03223C13.2044 4.03223 12.4413 4.3483 11.8787 4.91091C11.3161 5.47352 11 6.23658 11 7.03223C11 7.82788 11.3161 8.59094 11.8787 9.15355C12.4413 9.71616 13.2044 10.0322 14 10.0322C14.7956 10.0322 15.5587 9.71616 16.1213 9.15355C16.6839 8.59094 17 7.82788 17 7.03223ZM8 15.0322V16.0322H20V15.0322C20 13.0322 16 11.9322 14 11.9322C12 11.9322 8 13.0322 8 15.0322Z" fill="#2D31D9"/>
</g>
</svg>
