<svg width="37" height="36" viewBox="0 0 37 36" fill="none" xmlns="http://www.w3.org/2000/svg">
<g id="qrcode-scan" clip-path="url(#clip0_58_57)">
<path id="Vector" d="M6.5 6H15.5V15H6.5V6ZM30.5 6V15H21.5V6H30.5ZM21.5 22.5H24.5V19.5H21.5V16.5H24.5V19.5H27.5V16.5H30.5V19.5H27.5V22.5H30.5V27H27.5V30H24.5V27H20V30H17V24H21.5V22.5ZM24.5 22.5V27H27.5V22.5H24.5ZM6.5 30V21H15.5V30H6.5ZM9.5 9V12H12.5V9H9.5ZM24.5 9V12H27.5V9H24.5ZM9.5 24V27H12.5V24H9.5ZM6.5 16.5H9.5V19.5H6.5V16.5ZM14 16.5H20V22.5H17V19.5H14V16.5ZM17 9H20V15H17V9ZM3.5 3V9H0.5V3C0.5 2.20435 0.816071 1.44129 1.37868 0.87868C1.94129 0.316071 2.70435 0 3.5 0L9.5 0V3H3.5ZM33.5 0C34.2957 0 35.0587 0.316071 35.6213 0.87868C36.1839 1.44129 36.5 2.20435 36.5 3V9H33.5V3H27.5V0H33.5ZM3.5 27V33H9.5V36H3.5C2.70435 36 1.94129 35.6839 1.37868 35.1213C0.816071 34.5587 0.5 33.7957 0.5 33V27H3.5ZM33.5 33V27H36.5V33C36.5 33.7957 36.1839 34.5587 35.6213 35.1213C35.0587 35.6839 34.2957 36 33.5 36H27.5V33H33.5Z" fill="#2D31D9"/>
</g>
<defs>
<clipPath id="clip0_58_57">
<rect width="36" height="36" fill="white" transform="translate(0.5)"/>
</clipPath>
</defs>
</svg>
